<svg xmlns:xlink="http://www.w3.org/1999/xlink" xmlns="http://www.w3.org/2000/svg" viewBox="0 0 370.00000000000006 69.7666755498257" preserveAspectRatio="xMidYMid meet" class="css-88gl6m" id="hbfaadbb" width="370.00000000000006"  height="69.7666755498257" ><defs id="SvgjsDefs2700"><linearGradient id="SvgjsLinearGradient2705"><stop id="SvgjsStop2706" stop-color="#fbb040" offset="0"></stop><stop id="SvgjsStop2707" stop-color="#f9ed32" offset="1"></stop></linearGradient><linearGradient id="SvgjsLinearGradient2708"><stop id="SvgjsStop2709" stop-color="#fbb040" offset="0"></stop><stop id="SvgjsStop2710" stop-color="#f9ed32" offset="1"></stop></linearGradient><linearGradient id="SvgjsLinearGradient2705"><stop id="SvgjsStop2706" stop-color="#fbb040" offset="0"></stop><stop id="SvgjsStop2707" stop-color="#f9ed32" offset="1"></stop></linearGradient><linearGradient id="SvgjsLinearGradient2705"><stop id="SvgjsStop2706" stop-color="#fbb040" offset="0"></stop><stop id="SvgjsStop2707" stop-color="#f9ed32" offset="1"></stop></linearGradient><linearGradient id="SvgjsLinearGradient2708"><stop id="SvgjsStop2709" stop-color="#fbb040" offset="0"></stop><stop id="SvgjsStop2710" stop-color="#f9ed32" offset="1"></stop></linearGradient><linearGradient id="SvgjsLinearGradient2708"><stop id="SvgjsStop2709" stop-color="#fbb040" offset="0"></stop><stop id="SvgjsStop2710" stop-color="#f9ed32" offset="1"></stop></linearGradient></defs><g id="SvgjsG2701" featurekey="symbolFeature-0" transform="matrix(0.7000000534057658,0,0,0.7000000534057658,1.6689301810402054e-7,-0.11666572984052503)" fill="url(&quot;#SvgjsLinearGradient2705&quot;)"><title xmlns="http://www.w3.org/2000/svg">Processor</title><path xmlns="http://www.w3.org/2000/svg" style="" d="m 10.666665,96.499985 0,-3.3333 -1.916665,0 -1.916665,0 0,-1.83335 0,-1.83334 -3.41667,0 -3.416665,0 0,-2.16666 0,-2.16667 3.416665,0 3.41667,0 0,-2 0,-2 -3.41667,0 -3.416665,0 0,-2.16667 0,-2.16666 3.416665,0 3.41667,0 0,-2 0,-2 -3.41667,0 -3.416665,0 0,-2.16667 0,-2.16666 3.416665,0 3.41667,0 0,-1.91667 0,-1.91667 -3.41667,0 -3.416665,0 0,-2.16666 0,-2.16667 3.416665,0 3.41667,0 0,-2 0,-2 -3.41667,0 -3.416665,0 0,-2.16667 0,-2.16667 3.416665,0 3.41667,0 0,-1.916665 0,-1.916665 -3.41667,0 L 0,48.166665 0,46 l 0,-2.16667 3.416665,0 3.41667,0 0,-2 0,-2 -3.41667,0 L 0,39.83333 0,37.666665 0,35.5 l 3.416665,0 3.41667,0 0,-1.91667 0,-1.916665 -3.41667,0 L 0,31.666665 0,29.5 l 0,-2.16667 3.416665,0 3.41667,0 0,-2 0,-2 -3.41667,0 L 0,23.33333 0,21.166665 0,19 l 3.416665,0 3.41667,0 0,-2 0,-2 -3.41667,0 L 0,15 l 0,-2.16667 0,-2.166665 3.416665,0 3.41667,0 0,-1.916665 0,-1.91667 1.916665,0 1.916665,0 0,-3.33333 0,-3.333335 2.083335,0 2.083335,0 0,3.333335 0,3.33333 2.08333,0 2.083335,0 0,-3.33333 0,-3.333335 2.083335,0 2.08333,0 0,3.333335 0,3.33333 2.083335,0 2.083335,0 0,-3.33333 0,-3.333335 2.08333,0 2.083335,0 0,3.333335 0,3.33333 2,0 2,0 0,-3.33333 0,-3.333335 2.08333,0 2.083335,0 0,3.333335 0,3.33333 2.083335,0 2.08333,0 0,-3.33333 0,-3.333335 2.083335,0 2.083335,0 0,3.333335 0,3.33333 2,0 2.000005,0 0,-3.33333 0,-3.333335 2.08333,0 2.083335,0 0,3.333335 0,3.33333 2.083335,0 2.08333,0 0,-3.33333 0,-3.333335 2.083335,0 2.083335,0 0,3.333335 0,3.33333 2,0 2,0 0,-3.33333 0,-3.333335 2.08333,0 2.083335,0 0,3.333335 0,3.33333 2.083335,0 2.08333,0 0,-3.33333 0,-3.333335 2.083335,0 2.083335,0 0,3.333335 0,3.33333 2.08333,0 2.083335,0 0,-3.33333 0,-3.333335 2.083335,0 2.08333,0 0,3.333335 0,3.33333 1.91667,0 1.916665,0 0,1.91667 0,1.916665 3.416665,0 3.416665,0 0,2.166665 0,2.16667 -3.416665,0 -3.416665,0 0,2 0,2 3.416665,0 3.416665,0 0,2.166665 0,2.166665 -3.416665,0 -3.416665,0 0,2 0,2 3.416665,0 3.416665,0 0,2.16667 0,2.166665 -3.416665,0 -3.416665,0 0,1.916665 0,1.91667 3.416665,0 3.416665,0 0,2.166665 0,2.166665 -3.416665,0 -3.416665,0 0,2 0,2 3.416665,0 3.416665,0 0,2.16667 0,2.166665 -3.416665,0 -3.416665,0 0,1.916665 0,1.916665 3.416665,0 3.416665,0 0,2.16667 0,2.16667 -3.416665,0 -3.416665,0 0,2 0,2 3.416665,0 3.416665,0 0,2.16667 0,2.16666 -3.416665,0 -3.416665,0 0,1.91667 0,1.91667 3.416665,0 3.416665,0 0,2.16667 0,2.16666 -3.416665,0 -3.416665,0 0,2 0,2 3.416665,0 3.416665,0 0,2.16666 0,2.16667 -3.416665,0 -3.416665,0 0,2 0,2 3.416665,0 3.416665,0 0,2.16667 0,2.16666 -3.416665,0 -3.416665,0 0,1.83334 0,1.83335 -1.916665,0 -1.91667,0 0,3.3333 0,3.33335 -2.08333,0 -2.083335,0 0,-3.33335 0,-3.3333 -2.083335,0 -2.08333,0 0,3.3333 0,3.33335 -2.083335,0 -2.083335,0 0,-3.33335 0,-3.3333 -2.08333,0 -2.083335,0 0,3.3333 0,3.33335 -2.083335,0 -2.08333,0 0,-3.33335 0,-3.3333 -2,0 -2,0 0,3.3333 0,3.33335 -2.083335,0 -2.083335,0 0,-3.33335 0,-3.3333 -2.08333,0 -2.083335,0 0,3.3333 0,3.33335 -2.083335,0 -2.08333,0 0,-3.33335 0,-3.3333 -2.000005,0 -2,0 0,3.3333 0,3.33335 -2.083335,0 -2.083335,0 0,-3.33335 0,-3.3333 -2.08333,0 -2.083335,0 0,3.3333 0,3.33335 -2.083335,0 -2.08333,0 0,-3.33335 0,-3.3333 -2,0 -2,0 0,3.3333 0,3.33335 -2.083335,0 -2.08333,0 0,-3.33335 0,-3.3333 -2.083335,0 -2.083335,0 0,3.3333 0,3.33335 -2.08333,0 -2.083335,0 0,-3.33335 0,-3.3333 -2.083335,0 -2.08333,0 0,3.3333 0,3.33335 -2.083335,0 -2.083335,0 0,-3.33335 z m 81.500005,-46.49998 0,-42.16667 -42.16667,0 -42.166665,0 0,42.16667 0,42.16666 42.166665,0 42.16667,0 0,-42.16666 z m -83.500005,38.87715 0,-2.45618 2.41667,2.41236 C 12.4125,90.160125 13.5,91.265405 13.5,91.289515 c 0,0.0241 -1.0875,0.0438 -2.416665,0.0438 l -2.41667,0 0,-2.45618 z m 6.60296,0.7708 c -1.03371,-0.24268 -2.547195,-1.13352 -3.28422,-1.93309 -0.37431,-0.40608 -0.917905,-1.2393 -1.207985,-1.8516 l -0.52742,-1.11327 0,-34.758635 0,-34.758645 0.622455,-1.25945 c 0.749685,-1.51689 1.71479,-2.46176 3.26428,-3.19584 l 1.113265,-0.52742 34.75,0 34.750005,0 1.113265,0.52742 c 1.54948,0.73408 2.514585,1.67895 3.26428,3.19584 l 0.622455,1.25945 0,34.758645 0,34.758635 -0.52743,1.11327 c -0.73401,1.54934 -1.67896,2.51458 -3.195665,3.26428 l -1.25928,0.62245 -13.467145,0.0464 -13.46715,0.0464 0,-1.1714 0,-1.1714 -7.833335,0 -7.833335,0 0,1.16668 0,1.16666 -13.125,-0.0168 c -7.24704,-0.009 -13.414775,-0.0848 -13.77204,-0.16864 z m 25.89704,-1.98129 0,-1.16667 8.833335,0 8.833335,0 0,1.17174 0,1.17174 12.467175,-0.0468 12.46717,-0.0467 1.259255,-0.62245 c 1.51668,-0.7497 2.46164,-1.71496 3.19564,-3.26428 l 0.52743,-1.11327 0,-33.758635 0,-33.758645 -0.622455,-1.25945 c -0.749695,-1.51689 -1.7148,-2.46176 -3.26428,-3.19584 l -1.113265,-0.52742 -33.750005,0 -33.75,0 -1.11327,0.52742 c -1.549485,0.73408 -2.51459,1.67895 -3.264275,3.19584 l -0.622455,1.25945 0,33.758645 0,33.758635 0.52742,1.11327 c 0.29008,0.6123 0.833675,1.44552 1.207985,1.8516 0.737025,0.79957 2.25051,1.69041 3.284215,1.93309 0.355875,0.0835 6.103295,0.15943 12.772045,0.16864 l 12.125,0.0168 0,-1.16667 z m 11.66667,-13.00831 C 44.57578,73.630945 37.82495,69.145275 34.37862,62.395875 c -1.62237,-3.1773 -2.276025,-5.87571 -2.276025,-9.39587 0,-3.515645 0.65391,-6.219015 2.269825,-9.383805 1.1876,-2.325935 3.16612,-4.921165 4.678735,-6.13711 l 0.63449,-0.510045 -0.77163,1.12708 c -3.59246,5.247325 -4.52396,11.962455 -2.499095,18.01579 1.111995,3.3243 2.65096,5.78525 5.2509,8.39665 3.29643,3.31097 7.33789,5.46831 12.21945,6.52277 1.422895,0.30736 2.22472,0.3668 4.948065,0.3668 2.723335,0 3.52516,-0.0594 4.94807,-0.3668 3.148065,-0.68001 6.169825,-1.92643 8.659945,-3.57207 1.338375,-0.88448 1.35112,-0.88887 0.88044,-0.30337 -1.176335,1.46332 -4.10692,3.6884 -6.45539,4.90133 -1.88224,0.97214 -4.953905,1.99891 -7.033065,2.35097 -1.976,0.33458 -5.35185,0.45522 -7,0.25016 z m 8.25264,-12.75447 c 3.59247,-5.24733 4.523975,-11.962455 2.499095,-18.015795 -1.111985,-3.324305 -2.65095,-5.78525 -5.250895,-8.396655 -3.296425,-3.31097 -7.33789,-5.46831 -12.21944,-6.52277 -2.45949,-0.53127 -7.436645,-0.53127 -9.896135,0 -3.148065,0.68001 -6.169825,1.92643 -8.659955,3.57207 -1.33837,0.88448 -1.35111,0.88887 -0.880435,0.30337 1.176335,-1.463315 4.106925,-3.688395 6.45539,-4.90133 1.88809,-0.97516 4.937245,-1.99355 7.1164,-2.376815 2.24937,-0.395615 6.25063,-0.395615 8.5,0 9.644645,1.696275 17.077655,8.684435 18.861245,17.73241 0.598945,3.038355 0.31572,7.044565 -0.7178,10.153265 -1.08263,3.25642 -3.72127,7.28201 -5.9446,9.06928 l -0.634495,0.51004 0.771625,-1.12707 z M 9.67983,11.29324 C 8.8345,10.8535 8.893425,9.49234 9.77225,9.15821 c 0.92781,-0.352755 1.871285,0.46186 1.63327,1.410185 -0.18624,0.74204 -1.019685,1.092115 -1.725695,0.724845 z" fill="url(&quot;#SvgjsLinearGradient2705&quot;)"></path></g><g id="SvgjsG2702" featurekey="nameFeature-0" transform="matrix(1.2264352521536546,0,0,1.2264352521536546,87.54712949569269,1.535562290040712)" fill="url(&quot;#SvgjsLinearGradient2708&quot;)"><path d="M2.52 40 c-0.28 0 -0.52 -0.24 -0.52 -0.52 l0 -23.96 c0 -0.28 0.24 -0.52 0.52 -0.52 l5.2 0 c0.28 0 0.52 0.24 0.52 0.52 l0 23.96 c0 0.28 -0.24 0.52 -0.52 0.52 l-5.2 0 z M12.76 40 c-0.28 0 -0.52 -0.24 -0.52 -0.52 l0 -23.96 c0 -0.28 0.24 -0.52 0.52 -0.52 l4.72 0 c0.16 0 0.32 0.08 0.44 0.2 l9.2 14.2 l0 -13.88 c0 -0.28 0.24 -0.52 0.52 -0.52 l4.92 0 c0.28 0 0.52 0.24 0.52 0.52 l0 23.96 c0 0.28 -0.24 0.52 -0.52 0.52 l-4.72 0 c-0.16 0 -0.32 -0.08 -0.44 -0.2 l-9.16 -14.12 l0 13.8 c0 0.28 -0.24 0.52 -0.52 0.52 l-4.96 0 z M37.6 40 c-0.28 0 -0.52 -0.24 -0.52 -0.52 l0 -23.96 c0 -0.28 0.24 -0.52 0.52 -0.52 l16.52 0 c0.16 0 0.28 0.04 0.36 0.16 c0.12 0.08 0.16 0.2 0.16 0.36 l-0.04 4.48 c0 0.28 -0.24 0.52 -0.52 0.52 l-10.8 0 l0 4.84 l6.8 0 c0.28 0 0.52 0.24 0.52 0.52 l0 4.52 c0 0.28 -0.24 0.52 -0.52 0.52 l-6.8 0 l0 8.56 c0 0.28 -0.2 0.52 -0.48 0.52 l-5.2 0 z M69.12 40 c-2.4 0 -4.6 -0.56 -6.52 -1.68 c-1.96 -1.12 -3.52 -2.72 -4.68 -4.64 c-1.12 -1.96 -1.68 -4.2 -1.68 -6.6 c0 -2.36 0.56 -4.56 1.68 -6.52 c1.16 -1.96 2.68 -3.52 4.64 -4.64 s4.16 -1.68 6.56 -1.68 c2.36 0 4.56 0.56 6.52 1.68 s3.52 2.68 4.64 4.64 c1.16 1.96 1.72 4.16 1.72 6.52 c0 2.4 -0.56 4.6 -1.72 6.56 c-1.12 1.96 -2.68 3.52 -4.64 4.68 c-1.96 1.12 -4.16 1.68 -6.52 1.68 z M69.2 34.24 c1.16 0 2.24 -0.32 3.2 -0.92 c1 -0.64 1.8 -1.48 2.36 -2.6 c0.6 -1.08 0.88 -2.32 0.88 -3.64 c0 -1.28 -0.28 -2.52 -0.88 -3.6 c-0.56 -1.08 -1.36 -1.92 -2.36 -2.56 c-0.96 -0.6 -2.04 -0.92 -3.2 -0.92 c-1.2 0 -2.28 0.32 -3.28 0.92 c-1.04 0.64 -1.84 1.48 -2.44 2.56 c-0.6 1.12 -0.88 2.32 -0.88 3.6 c0 1.32 0.28 2.56 0.88 3.64 c0.64 1.08 1.44 1.96 2.44 2.56 c1 0.64 2.08 0.96 3.28 0.96 z M92.6 40 c-0.28 0 -0.48 -0.24 -0.48 -0.52 l0 -9.52 l-8.48 -14.2 c-0.08 -0.16 -0.08 -0.36 0.04 -0.52 c0.08 -0.16 0.24 -0.24 0.44 -0.24 l5.2 0 c0.2 0 0.36 0.08 0.44 0.28 l5.44 8.88 l5.32 -8.88 c0.08 -0.16 0.24 -0.28 0.44 -0.28 l5.24 0 c0.16 0 0.36 0.08 0.44 0.24 s0.08 0.36 0 0.52 l-8.32 14.04 l0 9.68 c0 0.28 -0.24 0.52 -0.52 0.52 l-5.2 0 z M106.35999999999999 40 c-0.16 0 -0.32 -0.08 -0.4 -0.24 c-0.12 -0.12 -0.12 -0.32 -0.08 -0.48 l9.32 -23.96 c0.08 -0.2 0.28 -0.32 0.48 -0.32 l5.36 0 c0.2 0 0.4 0.12 0.48 0.32 l9.16 23.96 c0.04 0.16 0.04 0.32 -0.08 0.48 c-0.08 0.16 -0.24 0.24 -0.4 0.24 l-5.56 0 c-0.2 0 -0.4 -0.12 -0.48 -0.32 l-1.48 -3.68 l-9 0.04 l-1.48 3.64 c-0.08 0.2 -0.28 0.32 -0.48 0.32 l-5.36 0 z M115.32 31 l5.76 0 l-2.88 -8.48 z M134.84 40 c-0.28 0 -0.52 -0.24 -0.52 -0.52 l0 -23.96 c0 -0.28 0.24 -0.52 0.52 -0.52 l4.72 0 c0.16 0 0.32 0.08 0.44 0.2 l9.2 14.2 l0 -13.88 c0 -0.28 0.24 -0.52 0.52 -0.52 l4.92 0 c0.28 0 0.52 0.24 0.52 0.52 l0 23.96 c0 0.28 -0.24 0.52 -0.52 0.52 l-4.72 0 c-0.16 0 -0.32 -0.08 -0.44 -0.2 l-9.16 -14.12 l0 13.8 c0 0.28 -0.24 0.52 -0.52 0.52 l-4.96 0 z M165.64 40 c-0.28 0 -0.48 -0.24 -0.48 -0.52 l0 -18.88 l-5.48 0 c-0.28 0 -0.52 -0.2 -0.52 -0.48 l0 -4.6 c0 -0.28 0.24 -0.52 0.52 -0.52 l17.16 0 c0.32 0 0.52 0.24 0.52 0.52 l0 4.6 c0 0.28 -0.2 0.48 -0.52 0.48 l-5.48 0 l0 18.88 c0 0.28 -0.24 0.52 -0.52 0.52 l-5.2 0 z M181.88 40 c-0.32 0 -0.52 -0.24 -0.52 -0.52 l0 -23.96 c0 -0.28 0.2 -0.52 0.52 -0.52 l9.76 0 c3.04 0 5.44 0.76 7.12 2.32 c2.48 2.24 3.32 6.48 2.12 9.6 c-0.44 1.12 -1.2 2.16 -2.16 2.92 c-0.56 0.44 -1.16 0.76 -1.76 1.08 c1.72 2.72 4.32 8.24 4.32 8.24 c0.04 0.08 0.12 0.2 0.12 0.32 c0 0.28 -0.24 0.52 -0.52 0.52 l-5.92 0 c-0.16 0 -0.36 -0.12 -0.44 -0.28 l-3.48 -7.64 c-1.24 0.08 -2.2 0.04 -3.48 0.04 l0 7.36 c0 0.28 -0.24 0.52 -0.52 0.52 l-5.16 0 z M187.55999999999997 26.560000000000002 c0 0 5.04 0.56 6.8 -0.6 c0.68 -0.44 1.08 -1.52 1.08 -2.32 c-0.04 -0.88 -0.48 -1.8 -1.2 -2.36 c-0.76 -0.64 -2.64 -0.84 -3.6 -0.84 l-3.08 0.08 l0 6.04 z M205.96 40 c-0.16 0 -0.32 -0.08 -0.4 -0.24 c-0.12 -0.12 -0.12 -0.32 -0.08 -0.48 l9.32 -23.96 c0.08 -0.2 0.28 -0.32 0.48 -0.32 l5.36 0 c0.2 0 0.4 0.12 0.48 0.32 l9.16 23.96 c0.04 0.16 0.04 0.32 -0.08 0.48 c-0.08 0.16 -0.24 0.24 -0.4 0.24 l-5.56 0 c-0.2 0 -0.4 -0.12 -0.48 -0.32 l-1.48 -3.68 l-9 0.04 l-1.48 3.64 c-0.08 0.2 -0.28 0.32 -0.48 0.32 l-5.36 0 z M214.92 31 l5.76 0 l-2.88 -8.48 z" fill="url(&quot;#SvgjsLinearGradient2708&quot;)"></path></g></svg>